<svg viewBox="0 0 100 100" xmlns="http://www.w3.org/2000/svg" xmlns:xlink="http://www.w3.org/1999/xlink">
    <radialGradient id="a" cx="77" cy="22"
        gradientTransform="matrix(.73 .69 -.33 .35 28 -38)" gradientUnits="userSpaceOnUse"
        r="22.5">
        <stop offset="0" stop-color="#000000" stop-opacity=".4" />
        <stop offset=".9" stop-color="#000000" stop-opacity="0" />
    </radialGradient>
    <path d="m58.23 5h36.77v36.61z" fill="url(#a)" />
    <path
        d="m90.68 32.32-24.01-23.67c-2.47-2.85-4.8-3.68-8.37-3.68-.14 0-.27.02-.41.03h-44.89c-4.42 0-8 3.58-8 8v74c0 4.42 3.58 8 8 8h74c4.42 0 8-3.58 8-8v-45.27c0-3.8-1.07-6.61-4.32-9.41z"
        fill="#d7dfc7" />
    <path
        d="m52.01 77.33v-3.3c.75-.11 1.54-.21 2.38-.32.83-.11 1.58-.23 2.25-.36s1.22-.29 1.65-.48.64-.39.64-.6c0-.27-.07-.58-.2-.93s-.28-.74-.44-1.17l-3.54-9.82c-.21-.59-.75-1.01-1.61-1.25s-1.75-.36-2.66-.36h-11.75c-1.72 0-2.77.54-3.14 1.61l-2.58 8.21c-.11.27-.19.56-.24.89-.05.32-.08.67-.08 1.05 0 2.09 2.28 3.14 6.84 3.14v3.7h-18.75v-3.7c3.01-.21 5.23-2.04 6.68-5.47l19.08-45.5 7.49 1.05 18.76 47.18c.21.59.56 1.07 1.05 1.45.48.38 1.03.67 1.65.89.62.21 1.25.39 1.89.52s1.26.23 1.85.28v3.3h-27.21zm-6.44-41.46-6.36 15.38c-.59 1.29-.89 2.09-.89 2.42 0 .43.83.64 2.5.64h9.9c1.29 0 1.93-.11 1.93-.32 0-.27-.51-1.72-1.53-4.35l-5.56-13.77z" fill="#16180e"
        opacity=".9" />
    <path d="m66.68 8.66c2.67 2.63 4.37 6.42 5.15 10.29s3.71 6.8 7.45 7.69c4.18.99 8.23 2.85 11.4 5.69l-24.01-23.67z"
        fill="#f0f3eb" />
</svg>