<svg viewBox="0 0 368 350" xmlns="http://www.w3.org/2000/svg" xmlns:xlink="http://www.w3.org/1999/xlink"><pattern id="a" patternTransform="matrix(.71069197 -.40333623 .41496229 .73118638 0 0)" xlink:href="#b"/><pattern id="b" height="5.18" patternUnits="userSpaceOnUse" width="30.07"><path d="m0 0h30.07v5.18h-30.07z" fill="#6d70b0"/><path d="m7.6.06c-2.52-.25-4.94.24-7.61 1.74v1.27c2.78-1.63 5.18-2 7.48-1.78 2.3.23 4.5 1.08 6.78 1.94 4.57 1.71 9.55 3.46 15.82-.16v-1.27c-6.45 3.7-10.82 1.98-15.38.27-2.28-.85-4.57-1.75-7.1-2z" fill="#444"/></pattern><path d="m42 58h288v288h-288z" fill="none" stroke="#ccc" stroke-miterlimit="10" stroke-width=".5"/><path d="m78 58v288" fill="none" stroke="#ccc" stroke-miterlimit="10" stroke-width=".5"/><path d="m114 58v288" fill="none" stroke="#ccc" stroke-miterlimit="10" stroke-width=".5"/><path d="m150 58v288" fill="none" stroke="#ccc" stroke-miterlimit="10" stroke-width=".5"/><path d="m186 58v288" fill="none" stroke="#ccc" stroke-miterlimit="10" stroke-width=".5"/><path d="m222 58v288" fill="none" stroke="#ccc" stroke-miterlimit="10" stroke-width=".5"/><path d="m258 58v288" fill="none" stroke="#ccc" stroke-miterlimit="10" stroke-width=".5"/><path d="m294 58v288" fill="none" stroke="#ccc" stroke-miterlimit="10" stroke-width=".5"/><path d="m42 310h288" fill="none" stroke="#ccc" stroke-miterlimit="10" stroke-width=".5"/><path d="m42 274h288" fill="none" stroke="#ccc" stroke-miterlimit="10" stroke-width=".5"/><path d="m42 238h288" fill="none" stroke="#ccc" stroke-miterlimit="10" stroke-width=".5"/><path d="m42 202h288" fill="none" stroke="#ccc" stroke-miterlimit="10" stroke-width=".5"/><path d="m42 166h288" fill="none" stroke="#ccc" stroke-miterlimit="10" stroke-width=".5"/><path d="m42 130h288" fill="none" stroke="#ccc" stroke-miterlimit="10" stroke-width=".5"/><path d="m42 94h288" fill="none" stroke="#ccc" stroke-miterlimit="10" stroke-width=".5"/><g fill="#808080"><circle cx="42" cy="58" r="1.5"/><circle cx="78" cy="58" r="1.5"/><circle cx="114" cy="58" r="1.5"/><circle cx="150" cy="58" r="1.5"/><circle cx="186" cy="58" r="1.5"/><circle cx="222" cy="58" r="1.5"/><circle cx="258" cy="58" r="1.5"/><circle cx="294" cy="58" r="1.5"/><circle cx="330" cy="58" r="1.5"/><circle cx="42" cy="94" r="1.5"/><circle cx="78" cy="94" r="1.5"/><circle cx="114" cy="94" r="1.5"/><circle cx="150" cy="94" r="1.5"/><circle cx="186" cy="94" r="1.5"/><circle cx="222" cy="94" r="1.5"/><circle cx="258" cy="94" r="1.5"/><circle cx="294" cy="94" r="1.5"/><circle cx="330" cy="94" r="1.5"/><circle cx="42" cy="130" r="1.5"/><circle cx="78" cy="130" r="1.5"/><circle cx="114" cy="130" r="1.5"/><circle cx="150" cy="130" r="1.5"/><circle cx="186" cy="130" r="1.5"/><circle cx="222" cy="130" r="1.5"/><circle cx="258" cy="130" r="1.5"/><circle cx="294" cy="130" r="1.5"/><circle cx="330" cy="130" r="1.5"/><circle cx="42" cy="166" r="1.5"/><circle cx="78" cy="166" r="1.5"/><circle cx="114" cy="166" r="1.5"/><circle cx="150" cy="166" r="1.5"/><circle cx="186" cy="166" r="1.5"/><circle cx="222" cy="166" r="1.5"/><circle cx="258" cy="166" r="1.5"/><circle cx="294" cy="166" r="1.5"/><circle cx="330" cy="166" r="1.5"/><circle cx="42" cy="202" r="1.5"/><circle cx="78" cy="202" r="1.5"/><circle cx="114" cy="202" r="1.5"/><circle cx="150" cy="202" r="1.5"/><circle cx="186" cy="202" r="1.5"/><circle cx="222" cy="202" r="1.5"/><circle cx="258" cy="202" r="1.5"/><circle cx="294" cy="202" r="1.5"/><circle cx="330" cy="202" r="1.5"/><circle cx="42" cy="238" r="1.5"/><circle cx="78" cy="238" r="1.5"/><circle cx="114" cy="238" r="1.5"/><circle cx="150" cy="238" r="1.5"/><circle cx="186" cy="238" r="1.5"/><circle cx="222" cy="238" r="1.5"/><circle cx="258" cy="238" r="1.5"/><circle cx="294" cy="238" r="1.5"/><circle cx="330" cy="238" r="1.5"/><circle cx="42" cy="274" r="1.5"/><circle cx="78" cy="274" r="1.5"/><circle cx="114" cy="274" r="1.5"/><circle cx="150" cy="274" r="1.5"/><circle cx="186" cy="274" r="1.5"/><circle cx="222" cy="274" r="1.5"/><circle cx="258" cy="274" r="1.5"/><circle cx="294" cy="274" r="1.5"/><circle cx="330" cy="274" r="1.5"/><circle cx="42" cy="310" r="1.5"/><circle cx="78" cy="310" r="1.5"/><circle cx="114" cy="310" r="1.5"/><circle cx="150" cy="310" r="1.5"/><circle cx="186" cy="310" r="1.5"/><circle cx="222" cy="310" r="1.5"/><circle cx="258" cy="310" r="1.5"/><circle cx="294" cy="310" r="1.5"/><circle cx="330" cy="310" r="1.5"/><circle cx="42" cy="346" r="1.5"/><circle cx="78" cy="346" r="1.5"/><circle cx="114" cy="346" r="1.5"/><circle cx="150" cy="346" r="1.5"/><circle cx="186" cy="346" r="1.5"/><circle cx="222" cy="346" r="1.5"/><circle cx="258" cy="346" r="1.5"/><circle cx="294" cy="346" r="1.5"/><circle cx="330" cy="346" r="1.5"/><circle cx="168" cy="31" r="1.5"/><circle cx="114" cy="328" r="1.5"/><circle cx="240" cy="328" r="1.5"/></g><path d="m240 346h90a36 36 0 0 1 -33.85-23.72l-102.19-298.72a27 27 0 0 1 -25.96 34.44l-91.86 263.46a36 36 0 0 1 -34.14 24.54h72a18 18 0 0 1 -17.1-23.64l38.5-110.36h83.91l37.79 110.36a18 18 0 0 1 -17.1 23.64zm-101.12-144 38.87-111.47 38.13 111.47z" fill="url(#a)" opacity=".85"/><circle cx="42" cy="310" fill="none" r="36" stroke="#808080" stroke-miterlimit="10" stroke-width=".5"/><circle cx="330" cy="310" fill="none" r="36" stroke="#808080" stroke-miterlimit="10" stroke-width=".5"/><circle cx="114" cy="328" fill="none" r="18" stroke="#808080" stroke-miterlimit="10" stroke-width=".5"/><circle cx="168" cy="31" fill="none" r="27" stroke="#808080" stroke-miterlimit="10" stroke-width=".5"/><circle cx="240" cy="328" fill="none" r="18" stroke="#808080" stroke-miterlimit="10" stroke-width=".5"/></svg>